<?xml version="1.0" encoding="UTF-8" standalone="no"?>
<svg width="92" height="64" viewBox="0 0 92 64" fill="none" xmlns="http://www.w3.org/2000/svg"><path d="m5.3 17-.33-6.76L14 .43h6.53l-8.99 9.87-3.3 3.5L5.3 17ZM0 21.7V.43h5.87V21.7H0Zm14.08 0-6.83-8.78 3.86-4.2 9.86 12.98h-6.9Z" fill="url(#a)"/><path d="M27.08 8.66h9.73v4.5h-9.73v-4.5Zm.42 8.4h10.96v4.64H21.62V.43h16.45v4.65H27.5v11.97Z" fill="url(#b)"/><path d="M45.31 21.7V5.2h-6.44V.43h18.78V5.2h-6.4v16.5H45.3Z" fill="url(#c)"/><path d="M69.25 22.13c-1.68 0-3.23-.27-4.65-.82A11.33 11.33 0 0 1 60.9 19a10.97 10.97 0 0 1-3.3-7.94 10.63 10.63 0 0 1 3.3-7.9c1.06-1.01 2.3-1.8 3.71-2.34C66.02.27 67.57 0 69.25 0c1.7 0 3.24.27 4.64.82a10.75 10.75 0 0 1 6.1 5.84c.6 1.33.9 2.8.9 4.4A10.87 10.87 0 0 1 77.58 19c-1.04 1-2.26 1.76-3.68 2.3-1.4.56-2.95.83-4.64.83Zm0-4.99c.8 0 1.53-.14 2.21-.42.7-.29 1.3-.7 1.8-1.22.52-.54.92-1.2 1.2-1.94.3-.75.45-1.58.45-2.5a6.52 6.52 0 0 0-1.65-4.4c-.5-.55-1.1-.97-1.8-1.25a5.91 5.91 0 0 0-4.46 0c-.68.28-1.28.7-1.8 1.25-.5.52-.9 1.16-1.2 1.91a6.93 6.93 0 0 0-.41 2.5c0 .9.13 1.74.41 2.49.3.75.7 1.4 1.2 1.94a5.45 5.45 0 0 0 4.05 1.64Z" fill="url(#d)"/><path d="M5.51 34.63h9.68v4.65H5.5v-4.65Zm.42 11.94H0V25.3h16.44v4.65H5.94v16.62Z" fill="url(#e)"/><path d="M18.32 46.57V25.3h5.93v16.5h10v4.77H18.32Z" fill="url(#f)"/><path d="M45.95 47c-1.67 0-3.22-.27-4.64-.82a11.32 11.32 0 0 1-3.71-2.31 10.97 10.97 0 0 1-3.3-7.93 10.63 10.63 0 0 1 3.3-7.9c1.06-1.02 2.3-1.8 3.71-2.35 1.42-.55 2.97-.82 4.64-.82 1.7 0 3.25.27 4.65.82a10.75 10.75 0 0 1 6.1 5.84c.6 1.34.9 2.8.9 4.4a10.87 10.87 0 0 1-3.32 7.94c-1.04 1-2.27 1.76-3.68 2.3-1.4.56-2.95.83-4.65.83Zm0-4.99c.8 0 1.54-.14 2.22-.42.7-.28 1.3-.69 1.8-1.22.52-.54.92-1.2 1.2-1.94.3-.75.45-1.58.45-2.5a6.52 6.52 0 0 0-1.65-4.4c-.5-.55-1.1-.96-1.8-1.25a5.92 5.92 0 0 0-4.46 0c-.68.29-1.28.7-1.8 1.25-.5.52-.9 1.16-1.2 1.91a6.93 6.93 0 0 0-.42 2.5 6.35 6.35 0 0 0 1.62 4.44A5.45 5.45 0 0 0 45.95 42Z" fill="url(#g)"/><path d="M64.3 46.57 57.5 25.3h6.1l5.73 18.42h-3.09l6.02-18.42h5.45l5.7 18.42h-2.97l5.9-18.42H92l-6.8 21.27h-6.35L74 30.92h1.7l-5.06 15.65H64.3Z" fill="url(#h)"/><path d="M3.33 61.58v-9.16h3.01v9.16H3.33ZM0 58.4v-2.8h9.65v2.8H0ZM9.61 63.73l6.06-13.46h3.81l6.07 13.46h-4.03l-4.74-11.6h1.53l-4.74 11.6H9.61Zm3.31-2.61 1-2.81h6.7l1 2.8h-8.7ZM32.9 64a8.85 8.85 0 0 1-3.01-.5 6.86 6.86 0 0 1-4.52-6.5 6.8 6.8 0 0 1 4.52-6.48A8.55 8.55 0 0 1 32.9 50c1.27 0 2.4.22 3.4.65a6.5 6.5 0 0 1 2.5 1.89l-2.47 2.2a4.8 4.8 0 0 0-1.47-1.18 4.3 4.3 0 0 0-3.3-.13c-.48.17-.88.44-1.22.78A3.76 3.76 0 0 0 29.28 57a4 4 0 0 0 1.06 2.8c.34.34.74.6 1.21.78a4.3 4.3 0 0 0 3.31-.14 4.8 4.8 0 0 0 1.47-1.17l2.47 2.2c-.67.8-1.5 1.43-2.5 1.88-1 .43-2.13.65-3.4.65ZM44.3 63.73l-5.85-13.46h4.2l4.93 11.65H45.1l5.05-11.65H54l-5.87 13.46H44.3Z" fill="#AB2A5E"/><defs><radialGradient id="a" cx="0" cy="0" r="1" gradientUnits="userSpaceOnUse" gradientTransform="matrix(-71 -41 56 -97 70.95 41.04)"><stop offset=".18" stop-color="#421853"/><stop offset=".42" stop-color="#238DEB"/><stop offset=".63" stop-color="#946EEA"/><stop offset=".64" stop-color="#7747DE"/><stop offset=".77" stop-color="#A62974"/><stop offset="1" stop-color="#EB3EAB"/></radialGradient><radialGradient id="b" cx="0" cy="0" r="1" gradientUnits="userSpaceOnUse" gradientTransform="matrix(-71 -41 56 -97 70.95 41.04)"><stop offset=".18" stop-color="#421853"/><stop offset=".42" stop-color="#238DEB"/><stop offset=".63" stop-color="#946EEA"/><stop offset=".64" stop-color="#7747DE"/><stop offset=".77" stop-color="#A62974"/><stop offset="1" stop-color="#EB3EAB"/></radialGradient><radialGradient id="c" cx="0" cy="0" r="1" gradientUnits="userSpaceOnUse" gradientTransform="matrix(-71 -41 56 -97 70.95 41.04)"><stop offset=".18" stop-color="#421853"/><stop offset=".42" stop-color="#238DEB"/><stop offset=".63" stop-color="#946EEA"/><stop offset=".64" stop-color="#7747DE"/><stop offset=".77" stop-color="#A62974"/><stop offset="1" stop-color="#EB3EAB"/></radialGradient><radialGradient id="d" cx="0" cy="0" r="1" gradientUnits="userSpaceOnUse" gradientTransform="matrix(-71 -41 56 -97 70.95 41.04)"><stop offset=".18" stop-color="#421853"/><stop offset=".42" stop-color="#238DEB"/><stop offset=".63" stop-color="#946EEA"/><stop offset=".64" stop-color="#7747DE"/><stop offset=".77" stop-color="#A62974"/><stop offset="1" stop-color="#EB3EAB"/></radialGradient><radialGradient id="e" cx="0" cy="0" r="1" gradientUnits="userSpaceOnUse" gradientTransform="matrix(-71 -41 56 -97 70.95 41.04)"><stop offset=".18" stop-color="#421853"/><stop offset=".42" stop-color="#238DEB"/><stop offset=".63" stop-color="#946EEA"/><stop offset=".64" stop-color="#7747DE"/><stop offset=".77" stop-color="#A62974"/><stop offset="1" stop-color="#EB3EAB"/></radialGradient><radialGradient id="f" cx="0" cy="0" r="1" gradientUnits="userSpaceOnUse" gradientTransform="matrix(-71 -41 56 -97 70.95 41.04)"><stop offset=".18" stop-color="#421853"/><stop offset=".42" stop-color="#238DEB"/><stop offset=".63" stop-color="#946EEA"/><stop offset=".64" stop-color="#7747DE"/><stop offset=".77" stop-color="#A62974"/><stop offset="1" stop-color="#EB3EAB"/></radialGradient><radialGradient id="g" cx="0" cy="0" r="1" gradientUnits="userSpaceOnUse" gradientTransform="matrix(-71 -41 56 -97 70.95 41.04)"><stop offset=".18" stop-color="#421853"/><stop offset=".42" stop-color="#238DEB"/><stop offset=".63" stop-color="#946EEA"/><stop offset=".64" stop-color="#7747DE"/><stop offset=".77" stop-color="#A62974"/><stop offset="1" stop-color="#EB3EAB"/></radialGradient><radialGradient id="h" cx="0" cy="0" r="1" gradientUnits="userSpaceOnUse" gradientTransform="matrix(-71 -41 56 -97 70.95 41.04)"><stop offset=".18" stop-color="#421853"/><stop offset=".42" stop-color="#238DEB"/><stop offset=".63" stop-color="#946EEA"/><stop offset=".64" stop-color="#7747DE"/><stop offset=".77" stop-color="#A62974"/><stop offset="1" stop-color="#EB3EAB"/></radialGradient></defs></svg>